Chivo-Bold.ufo
<glyph name="exclam" format="1">
  <advance width="290"/>
  <unicode hex="0021"/>
  <outline>
    <contour>
      <point x="72" y="0" type="line"/>
      <point x="218" y="0" type="line"/>
      <point x="218" y="147" type="line"/>
      <point x="72" y="147" type="line"/>
    </contour>
    <contour>
      <point x="95" y="202" type="line"/>
      <point x="192" y="202" type="line"/>
      <point x="233" y="686" type="line"/>
      <point x="56" y="686" type="line"/>
    </contour>
  </outline>
</glyph>
<glyph name="numbersign" format="1">
  <advance width="600"/>
  <unicode hex="0023"/>
  <outline>
    <contour>
      <point x="45" y="402" type="line"/>
      <point x="159" y="402" type="line"/>
      <point x="128" y="264" type="line"/>
      <point x="3" y="264" type="line"/>
      <point x="3" y="172" type="line"/>
      <point x="107" y="172" type="line"/>
      <point x="69" y="0" type="line"/>
      <point x="166" y="0" type="line"/>
      <point x="203" y="172" type="line"/>
      <point x="334" y="172" type="line"/>
      <point x="322" y="115"/>
      <point x="309" y="57"/>
      <point x="296" y="0" type="curve"/>
      <point x="392" y="0" type="line"/>
      <point x="405" y="57"/>
      <point x="418" y="115"/>
      <point x="430" y="172" type="curve"/>
      <point x="562" y="172" type="line"/>
      <point x="562" y="264" type="line"/>
      <point x="452" y="264" type="line"/>
      <point x="482" y="402" type="line"/>
      <point x="598" y="402" type="line"/>
      <point x="598" y="494" type="line"/>
      <point x="500" y="494" type="line"/>
      <point x="516" y="561"/>
      <point x="531" y="628"/>
      <point x="546" y="696" type="curve"/>
      <point x="450" y="696" type="line"/>
      <point x="435" y="628"/>
      <point x="420" y="561"/>
      <point x="405" y="494" type="curve"/>
      <point x="275" y="494" type="line"/>
      <point x="290" y="561"/>
      <point x="305" y="628"/>
      <point x="320" y="696" type="curve"/>
      <point x="223" y="696" type="line"/>
      <point x="208" y="628"/>
      <point x="193" y="561"/>
      <point x="178" y="494" type="curve"/>
      <point x="45" y="494" type="line"/>
    </contour>
    <contour>
      <point x="254" y="401" type="line"/>
      <point x="386" y="401" type="line"/>
      <point x="355" y="263" type="line"/>
      <point x="224" y="263" type="line"/>
    </contour>
  </outline>
</glyph>
<glyph name="hyphen" format="1">
  <advance width="260"/>
  <unicode hex="002D"/>
  <outline>
    <contour>
      <point x="0" y="208" type="line"/>
      <point x="253" y="208" type="line"/>
      <point x="253" y="336" type="line"/>
      <point x="0" y="336" type="line"/>
    </contour>
  </outline>
</glyph>
<glyph name="period" format="1">
  <advance width="277"/>
  <unicode hex="002E"/>
  <outline>
    <contour>
      <point x="65" y="0" type="line"/>
      <point x="211" y="0" type="line"/>
      <point x="211" y="147" type="line"/>
      <point x="65" y="147" type="line"/>
    </contour>
  </outline>
</glyph>
<glyph name="six" format="1">
  <advance width="612"/>
  <unicode hex="0036"/>
  <outline>
    <contour>
      <point x="369" y="576"/>
      <point x="409" y="526"/>
      <point x="409" y="469" type="curve"/>
      <point x="547" y="469" type="line"/>
      <point x="547" y="614"/>
      <point x="442" y="696"/>
      <point x="311" y="696" type="curve" smooth="yes"/>
      <point x="297" y="696" type="line" smooth="yes"/>
      <point x="161" y="696"/>
      <point x="52" y="591"/>
      <point x="52" y="455" type="curve" smooth="yes"/>
      <point x="52" y="231" type="line" smooth="yes"/>
      <point x="52" y="87"/>
      <point x="163" y="-10"/>
      <point x="300" y="-10" type="curve" smooth="yes"/>
      <point x="314" y="-10" type="line" smooth="yes"/>
      <point x="452" y="-10"/>
      <point x="561" y="80"/>
      <point x="561" y="225" type="curve" smooth="yes"/>
      <point x="561" y="355"/>
      <point x="462" y="434"/>
      <point x="339" y="434" type="curve" smooth="yes"/>
      <point x="289" y="434"/>
      <point x="236" y="414"/>
      <point x="199" y="375" type="curve"/>
      <point x="199" y="472" type="line" smooth="yes"/>
      <point x="199" y="531"/>
      <point x="249" y="576"/>
      <point x="307" y="576" type="curve" smooth="yes"/>
    </contour>
    <contour>
      <point x="416" y="208" type="line" smooth="yes"/>
      <point x="416" y="147"/>
      <point x="368" y="104"/>
      <point x="309" y="104" type="curve" smooth="yes"/>
      <point x="247" y="104"/>
      <point x="199" y="147"/>
      <point x="199" y="208" type="curve" smooth="yes"/>
      <point x="199" y="228" type="line" smooth="yes"/>
      <point x="199" y="289"/>
      <point x="247" y="332"/>
      <point x="306" y="332" type="curve" smooth="yes"/>
      <point x="368" y="332"/>
      <point x="416" y="289"/>
      <point x="416" y="228" type="curve" smooth="yes"/>
    </contour>
  </outline>
</glyph>
<glyph name="seven" format="1">
  <advance width="612"/>
  <unicode hex="0037"/>
  <outline>
    <contour>
      <point x="562" y="686" type="line"/>
      <point x="66" y="686" type="line"/>
      <point x="66" y="555" type="line"/>
      <point x="391" y="555" type="line"/>
      <point x="278" y="411"/>
      <point x="154" y="213"/>
      <point x="154" y="0" type="curve"/>
      <point x="322" y="0" type="line"/>
      <point x="321" y="12"/>
      <point x="321" y="45"/>
      <point x="321" y="55" type="curve" smooth="yes"/>
      <point x="321" y="267"/>
      <point x="445" y="464"/>
      <point x="562" y="614" type="curve"/>
    </contour>
  </outline>
</glyph>
<glyph name="equal" format="1">
  <advance width="600"/>
  <unicode hex="003D"/>
  <outline>
    <contour>
      <point x="554" y="309" type="line"/>
      <point x="554" y="415" type="line"/>
      <point x="46" y="415" type="line"/>
      <point x="46" y="309" type="line"/>
    </contour>
    <contour>
      <point x="554" y="93" type="line"/>
      <point x="554" y="199" type="line"/>
      <point x="46" y="199" type="line"/>
      <point x="46" y="93" type="line"/>
    </contour>
  </outline>
</glyph>
<glyph name="at" format="1">
  <advance width="927"/>
  <unicode hex="0040"/>
  <outline>
    <contour>
      <point x="553" y="225" type="line" smooth="yes"/>
      <point x="553" y="157"/>
      <point x="501" y="114"/>
      <point x="446" y="114" type="curve" smooth="yes"/>
      <point x="404" y="114"/>
      <point x="377" y="128"/>
      <point x="377" y="172" type="curve" smooth="yes"/>
      <point x="377" y="227"/>
      <point x="439" y="247"/>
      <point x="553" y="247" type="curve"/>
    </contour>
    <contour>
      <point x="688" y="371" type="line" smooth="yes"/>
      <point x="688" y="461"/>
      <point x="621" y="521"/>
      <point x="482" y="521" type="curve" smooth="yes"/>
      <point x="462" y="521" type="line" smooth="yes"/>
      <point x="336" y="521"/>
      <point x="251" y="462"/>
      <point x="251" y="381" type="curve" smooth="yes"/>
      <point x="251" y="375"/>
      <point x="251" y="370"/>
      <point x="252" y="364" type="curve"/>
      <point x="384" y="364" type="line"/>
      <point x="384" y="371" type="line" smooth="yes"/>
      <point x="384" y="391"/>
      <point x="403" y="431"/>
      <point x="468" y="431" type="curve" smooth="yes"/>
      <point x="536" y="431"/>
      <point x="553" y="395"/>
      <point x="553" y="360" type="curve" smooth="yes"/>
      <point x="553" y="324" type="line"/>
      <point x="361" y="324"/>
      <point x="236" y="300"/>
      <point x="236" y="162" type="curve" smooth="yes"/>
      <point x="236" y="42"/>
      <point x="322" y="22"/>
      <point x="399" y="22" type="curve" smooth="yes"/>
      <point x="476" y="22"/>
      <point x="518" y="56"/>
      <point x="559" y="103" type="curve"/>
      <point x="563" y="103" type="line"/>
      <point x="574" y="57"/>
      <point x="598" y="22"/>
      <point x="676" y="22" type="curve" smooth="yes"/>
      <point x="766" y="22"/>
      <point x="879" y="91"/>
      <point x="879" y="320" type="curve" smooth="yes"/>
      <point x="879" y="588"/>
      <point x="707" y="697"/>
      <point x="476" y="697" type="curve" smooth="yes"/>
      <point x="245" y="697"/>
      <point x="48" y="580"/>
      <point x="48" y="262" type="curve" smooth="yes"/>
      <point x="48" y="-27"/>
      <point x="198" y="-153"/>
      <point x="441" y="-153" type="curve" smooth="yes"/>
      <point x="484" y="-153"/>
      <point x="564" y="-142"/>
      <point x="606" y="-126" type="curve"/>
      <point x="606" y="-63" type="line"/>
      <point x="570" y="-81"/>
      <point x="487" y="-95"/>
      <point x="441" y="-95" type="curve" smooth="yes"/>
      <point x="218" y="-95"/>
      <point x="114" y="24"/>
      <point x="114" y="261" type="curve" smooth="yes"/>
      <point x="114" y="516"/>
      <point x="253" y="639"/>
      <point x="475" y="639" type="curve" smooth="yes"/>
      <point x="674" y="639"/>
      <point x="813" y="546"/>
      <point x="813" y="321" type="curve" smooth="yes"/>
      <point x="813" y="146"/>
      <point x="758" y="113"/>
      <point x="723" y="113" type="curve" smooth="yes"/>
      <point x="704" y="113"/>
      <point x="688" y="124"/>
      <point x="688" y="150" type="curve" smooth="yes"/>
    </contour>
  </outline>
</glyph>
<glyph name="F" format="1">
  <advance width="563"/>
  <unicode hex="0046"/>
  <outline>
    <contour>
      <point x="536" y="686" type="line"/>
      <point x="72" y="686" type="line"/>
      <point x="72" y="0" type="line"/>
      <point x="224" y="0" type="line"/>
      <point x="224" y="276" type="line"/>
      <point x="490" y="276" type="line"/>
      <point x="490" y="399" type="line"/>
      <point x="224" y="399" type="line"/>
      <point x="224" y="563" type="line"/>
      <point x="520" y="563" type="line"/>
    </contour>
  </outline>
</glyph>
<glyph name="H" format="1">
  <advance width="691"/>
  <unicode hex="0048"/>
  <outline>
    <contour>
      <point x="618" y="0" type="line"/>
      <point x="618" y="686" type="line"/>
      <point x="464" y="686" type="line"/>
      <point x="464" y="414" type="line"/>
      <point x="226" y="414" type="line"/>
      <point x="226" y="686" type="line"/>
      <point x="72" y="686" type="line"/>
      <point x="72" y="0" type="line"/>
      <point x="227" y="0" type="line"/>
      <point x="227" y="286" type="line"/>
      <point x="464" y="286" type="line"/>
      <point x="464" y="0" type="line"/>
    </contour>
    <contour>
      <point x="346" y="343" type="move" name="center"/>
    </contour>
    <contour>
      <point x="346" y="686" type="move" name="top"/>
    </contour>
  </outline>
</glyph>
<glyph name="K" format="1">
  <advance width="660"/>
  <unicode hex="004B"/>
  <outline>
    <contour>
      <point x="72" y="0" type="line"/>
      <point x="223" y="0" type="line"/>
      <point x="223" y="179" type="line"/>
      <point x="312" y="278" type="line"/>
      <point x="475" y="0" type="line"/>
      <point x="650" y="0" type="line"/>
      <point x="570" y="132"/>
      <point x="492" y="264"/>
      <point x="412" y="397" type="curve"/>
      <point x="489" y="493"/>
      <point x="566" y="589"/>
      <point x="643" y="686" type="curve"/>
      <point x="470" y="686" type="line"/>
      <point x="388" y="581"/>
      <point x="305" y="476"/>
      <point x="223" y="372" type="curve"/>
      <point x="223" y="686" type="line"/>
      <point x="72" y="686" type="line"/>
    </contour>
    <contour>
      <point x="330" y="686" type="move" name="top"/>
    </contour>
    <contour>
      <point x="330" y="0" type="move" name="bottom"/>
    </contour>
  </outline>
</glyph>
<glyph name="U" format="1">
  <advance width="673"/>
  <unicode hex="0055"/>
  <outline>
    <contour>
      <point x="609" y="686" type="line"/>
      <point x="455" y="686" type="line"/>
      <point x="455" y="221" type="line" smooth="yes"/>
      <point x="455" y="157"/>
      <point x="408" y="112"/>
      <point x="337" y="112" type="curve" smooth="yes"/>
      <point x="267" y="112"/>
      <point x="218" y="158"/>
      <point x="218" y="221" type="curve" smooth="yes"/>
      <point x="218" y="686" type="line"/>
      <point x="64" y="686" type="line"/>
      <point x="64" y="218" type="line" smooth="yes"/>
      <point x="64" y="80"/>
      <point x="166" y="-10"/>
      <point x="322" y="-10" type="curve" smooth="yes"/>
      <point x="350" y="-10" type="line" smooth="yes"/>
      <point x="506" y="-10"/>
      <point x="609" y="80"/>
      <point x="609" y="218" type="curve" smooth="yes"/>
    </contour>
    <contour>
      <point x="446" y="10" type="move" name="ogonek"/>
    </contour>
    <contour>
      <point x="337" y="686" type="move" name="top"/>
    </contour>
  </outline>
</glyph>
<glyph name="V" format="1">
  <advance width="643"/>
  <unicode hex="0056"/>
  <outline>
    <contour>
      <point x="325" y="196" type="line"/>
      <point x="169" y="686" type="line"/>
      <point x="7" y="686" type="line"/>
      <point x="232" y="0" type="line"/>
      <point x="409" y="0" type="line"/>
      <point x="635" y="686" type="line"/>
      <point x="487" y="686" type="line"/>
      <point x="330" y="196" type="line"/>
    </contour>
  </outline>
</glyph>
<glyph name="Z" format="1">
  <advance width="631"/>
  <unicode hex="005A"/>
  <outline>
    <contour>
      <point x="589" y="0" type="line"/>
      <point x="589" y="123" type="line"/>
      <point x="266" y="123" type="line"/>
      <point x="581" y="636" type="line"/>
      <point x="581" y="686" type="line"/>
      <point x="66" y="686" type="line"/>
      <point x="66" y="563" type="line"/>
      <point x="358" y="563" type="line"/>
      <point x="42" y="49" type="line"/>
      <point x="42" y="0" type="line"/>
    </contour>
    <contour>
      <point x="316" y="686" type="move" name="top"/>
    </contour>
  </outline>
</glyph>
<glyph name="bracketleft" format="1">
  <advance width="338"/>
  <unicode hex="005B"/>
  <outline>
    <contour>
      <point x="265" y="-161" type="line"/>
      <point x="265" y="-92" type="line"/>
      <point x="177" y="-92" type="line"/>
      <point x="177" y="617" type="line"/>
      <point x="265" y="617" type="line"/>
      <point x="265" y="686" type="line"/>
      <point x="62" y="686" type="line"/>
      <point x="62" y="-161" type="line"/>
    </contour>
  </outline>
</glyph>
<glyph name="asciicircum" format="1">
  <advance width="598"/>
  <unicode hex="005E"/>
  <outline>
    <contour>
      <point x="238" y="511" type="line"/>
      <point x="41" y="0" type="line"/>
      <point x="153" y="0" type="line"/>
      <point x="202" y="128"/>
      <point x="250" y="256"/>
      <point x="299" y="385" type="curve"/>
      <point x="347" y="256"/>
      <point x="396" y="128"/>
      <point x="445" y="0" type="curve"/>
      <point x="556" y="0" type="line"/>
      <point x="359" y="511" type="line"/>
    </contour>
  </outline>
</glyph>
<glyph name="c" format="1">
  <advance width="567"/>
  <unicode hex="0063"/>
  <outline>
    <contour>
      <point x="191" y="296" type="line" smooth="yes"/>
      <point x="191" y="365"/>
      <point x="226" y="421"/>
      <point x="288" y="421" type="curve" smooth="yes"/>
      <point x="350" y="421"/>
      <point x="379" y="373"/>
      <point x="379" y="307" type="curve"/>
      <point x="524" y="307" type="line"/>
      <point x="524" y="444"/>
      <point x="419" y="521"/>
      <point x="303" y="521" type="curve" smooth="yes"/>
      <point x="287" y="521" type="line" smooth="yes"/>
      <point x="146" y="521"/>
      <point x="43" y="429"/>
      <point x="43" y="270" type="curve" smooth="yes"/>
      <point x="43" y="241" type="line" smooth="yes"/>
      <point x="43" y="82"/>
      <point x="139" y="-10"/>
      <point x="287" y="-10" type="curve" smooth="yes"/>
      <point x="303" y="-10" type="line" smooth="yes"/>
      <point x="418" y="-10"/>
      <point x="524" y="55"/>
      <point x="524" y="203" type="curve"/>
      <point x="386" y="203" type="line"/>
      <point x="386" y="127"/>
      <point x="347" y="90"/>
      <point x="287" y="90" type="curve" smooth="yes"/>
      <point x="226" y="90"/>
      <point x="191" y="142"/>
      <point x="191" y="207" type="curve" smooth="yes"/>
    </contour>
    <contour>
      <point x="284" y="511" type="move" name="top"/>
    </contour>
    <contour>
      <point x="284" y="0" type="move" name="bottom"/>
    </contour>
  </outline>
</glyph>
<glyph name="g" format="1">
  <advance width="572"/>
  <unicode hex="0067"/>
  <outline>
    <contour>
      <point x="239" y="116" type="line" smooth="yes"/>
      <point x="195" y="116"/>
      <point x="176" y="133"/>
      <point x="176" y="158" type="curve" smooth="yes"/>
      <point x="176" y="177"/>
      <point x="196" y="200"/>
      <point x="239" y="200" type="curve" smooth="yes"/>
      <point x="308" y="200" type="line" smooth="yes"/>
      <point x="430" y="200"/>
      <point x="508" y="272"/>
      <point x="508" y="360" type="curve" smooth="yes"/>
      <point x="508" y="403"/>
      <point x="488" y="440"/>
      <point x="455" y="468" type="curve"/>
      <point x="456" y="471" type="line"/>
      <point x="522" y="487"/>
      <point x="562" y="529"/>
      <point x="562" y="603" type="curve"/>
      <point x="448" y="603" type="line"/>
      <point x="446" y="585"/>
      <point x="435" y="546"/>
      <point x="373" y="509" type="curve"/>
      <point x="348" y="517"/>
      <point x="319" y="521"/>
      <point x="289" y="521" type="curve" smooth="yes"/>
      <point x="273" y="521" type="line" smooth="yes"/>
      <point x="124" y="521"/>
      <point x="55" y="449"/>
      <point x="55" y="360" type="curve" smooth="yes"/>
      <point x="55" y="310"/>
      <point x="82" y="265"/>
      <point x="127" y="237" type="curve"/>
      <point x="77" y="222"/>
      <point x="41" y="183"/>
      <point x="41" y="133" type="curve" smooth="yes"/>
      <point x="41" y="98"/>
      <point x="58" y="68"/>
      <point x="88" y="48" type="curve"/>
      <point x="46" y="29"/>
      <point x="12" y="-13"/>
      <point x="12" y="-62" type="curve" smooth="yes"/>
      <point x="12" y="-144"/>
      <point x="78" y="-188"/>
      <point x="156" y="-188" type="curve" smooth="yes"/>
      <point x="367" y="-188" type="line" smooth="yes"/>
      <point x="475" y="-188"/>
      <point x="562" y="-121"/>
      <point x="562" y="-27" type="curve" smooth="yes"/>
      <point x="562" y="55"/>
      <point x="513" y="116"/>
      <point x="417" y="116" type="curve" smooth="yes"/>
    </contour>
    <contour>
      <point x="195" y="409"/>
      <point x="234" y="434"/>
      <point x="283" y="434" type="curve" smooth="yes"/>
      <point x="332" y="434"/>
      <point x="372" y="409"/>
      <point x="372" y="360" type="curve" smooth="yes"/>
      <point x="372" y="311"/>
      <point x="332" y="286"/>
      <point x="283" y="286" type="curve" smooth="yes"/>
      <point x="234" y="286"/>
      <point x="195" y="311"/>
      <point x="195" y="360" type="curve" smooth="yes"/>
    </contour>
    <contour>
      <point x="195" y="-98" type="line" smooth="yes"/>
      <point x="165" y="-98"/>
      <point x="141" y="-75"/>
      <point x="141" y="-48" type="curve" smooth="yes"/>
      <point x="141" y="-21"/>
      <point x="165" y="1"/>
      <point x="195" y="1" type="curve" smooth="yes"/>
      <point x="369" y="1" type="line" smooth="yes"/>
      <point x="405" y="1"/>
      <point x="427" y="-20"/>
      <point x="427" y="-46" type="curve" smooth="yes"/>
      <point x="427" y="-74"/>
      <point x="398" y="-98"/>
      <point x="363" y="-98" type="curve" smooth="yes"/>
    </contour>
    <contour>
      <point x="286" y="511" type="move" name="top"/>
    </contour>
  </outline>
</glyph>
<glyph name="h" format="1">
  <advance width="598"/>
  <unicode hex="0068"/>
  <outline>
    <contour>
      <point x="66" y="720" type="line"/>
      <point x="66" y="0" type="line"/>
      <point x="212" y="0" type="line"/>
      <point x="212" y="314" type="line" smooth="yes"/>
      <point x="212" y="371"/>
      <point x="256" y="415"/>
      <point x="307" y="415" type="curve" smooth="yes"/>
      <point x="354" y="415"/>
      <point x="387" y="377"/>
      <point x="387" y="325" type="curve" smooth="yes"/>
      <point x="387" y="0" type="line"/>
      <point x="533" y="0" type="line"/>
      <point x="533" y="357" type="line" smooth="yes"/>
      <point x="533" y="468"/>
      <point x="452" y="521"/>
      <point x="354" y="521" type="curve" smooth="yes"/>
      <point x="290" y="521"/>
      <point x="244" y="494"/>
      <point x="212" y="461" type="curve"/>
      <point x="212" y="720" type="line"/>
    </contour>
    <contour>
      <point x="299" y="256" type="move" name="center"/>
    </contour>
    <contour>
      <point x="139" y="686" type="move" name="top"/>
    </contour>
  </outline>
</glyph>
<glyph name="i" format="1">
  <advance width="278"/>
  <unicode hex="0069"/>
  <outline>
    <contour>
      <point x="212" y="0" type="line"/>
      <point x="212" y="511" type="line"/>
      <point x="66" y="511" type="line"/>
      <point x="66" y="0" type="line"/>
    </contour>
    <contour>
      <point x="65" y="605" type="line"/>
      <point x="213" y="605" type="line"/>
      <point x="213" y="720" type="line"/>
      <point x="65" y="720" type="line"/>
    </contour>
  </outline>
</glyph>
<glyph name="j" format="1">
  <advance width="280"/>
  <unicode hex="006A"/>
  <outline>
    <contour>
      <point x="67" y="-18" type="line" smooth="yes"/>
      <point x="67" y="-77"/>
      <point x="39" y="-86"/>
      <point x="11" y="-86" type="curve" smooth="yes"/>
      <point x="-4" y="-86"/>
      <point x="-35" y="-80"/>
      <point x="-50" y="-73" type="curve"/>
      <point x="-50" y="-166" type="line"/>
      <point x="-23" y="-179"/>
      <point x="28" y="-186"/>
      <point x="59" y="-186" type="curve" smooth="yes"/>
      <point x="160" y="-186"/>
      <point x="213" y="-133"/>
      <point x="213" y="-20" type="curve" smooth="yes"/>
      <point x="213" y="510" type="line"/>
      <point x="67" y="510" type="line"/>
    </contour>
    <contour>
      <point x="66" y="605" type="line"/>
      <point x="214" y="605" type="line"/>
      <point x="214" y="720" type="line"/>
      <point x="66" y="720" type="line"/>
    </contour>
  </outline>
</glyph>
<glyph name="l" format="1">
  <advance width="279"/>
  <unicode hex="006C"/>
  <outline>
    <contour>
      <point x="212" y="0" type="line"/>
      <point x="212" y="720" type="line"/>
      <point x="66" y="720" type="line"/>
      <point x="66" y="0" type="line"/>
    </contour>
    <contour>
      <point x="140" y="686" type="move" name="top"/>
    </contour>
    <contour>
      <point x="140" y="0" type="move" name="bottom"/>
    </contour>
    <contour>
      <point x="339" y="686" type="move" name="topright"/>
    </contour>
  </outline>
</glyph>
<glyph name="asciitilde" format="1">
  <advance width="714"/>
  <unicode hex="007E"/>
  <outline>
    <contour>
      <point x="639" y="396" type="line"/>
      <point x="639" y="396"/>
      <point x="571" y="318"/>
      <point x="476" y="318" type="curve" smooth="yes"/>
      <point x="388" y="318"/>
      <point x="323" y="384"/>
      <point x="238" y="384" type="curve" smooth="yes"/>
      <point x="143" y="384"/>
      <point x="75" y="306"/>
      <point x="75" y="306" type="curve"/>
      <point x="75" y="200" type="line"/>
      <point x="75" y="200"/>
      <point x="143" y="278"/>
      <point x="238" y="278" type="curve" smooth="yes"/>
      <point x="326" y="278"/>
      <point x="391" y="212"/>
      <point x="476" y="212" type="curve" smooth="yes"/>
      <point x="571" y="212"/>
      <point x="639" y="290"/>
      <point x="639" y="290" type="curve"/>
    </contour>
  </outline>
</glyph>
<glyph name="uni00B3" format="1">
  <advance width="506"/>
  <unicode hex="00B3"/>
  <outline>
    <contour>
      <point x="36" y="523" type="line" smooth="yes"/>
      <point x="36" y="459"/>
      <point x="85" y="412"/>
      <point x="173" y="412" type="curve" smooth="yes"/>
      <point x="188" y="412" type="line" smooth="yes"/>
      <point x="272" y="412"/>
      <point x="325" y="458"/>
      <point x="325" y="520" type="curve" smooth="yes"/>
      <point x="325" y="568"/>
      <point x="299" y="598"/>
      <point x="259" y="611" type="curve"/>
      <point x="259" y="616" type="line"/>
      <point x="292" y="631"/>
      <point x="315" y="657"/>
      <point x="315" y="698" type="curve" smooth="yes"/>
      <point x="315" y="757"/>
      <point x="262" y="800"/>
      <point x="188" y="800" type="curve" smooth="yes"/>
      <point x="177" y="800" type="line" smooth="yes"/>
      <point x="100" y="800"/>
      <point x="46" y="757"/>
      <point x="46" y="697" type="curve" smooth="yes"/>
      <point x="46" y="686" type="line"/>
      <point x="120" y="686" type="line"/>
      <point x="120" y="718"/>
      <point x="146" y="735"/>
      <point x="176" y="735" type="curve" smooth="yes"/>
      <point x="207" y="735"/>
      <point x="234" y="720"/>
      <point x="234" y="688" type="curve" smooth="yes"/>
      <point x="234" y="655"/>
      <point x="209" y="639"/>
      <point x="178" y="639" type="curve" smooth="yes"/>
      <point x="133" y="639" type="line"/>
      <point x="133" y="580" type="line"/>
      <point x="172" y="580" type="line" smooth="yes"/>
      <point x="207" y="580"/>
      <point x="243" y="575"/>
      <point x="243" y="530" type="curve" smooth="yes"/>
      <point x="243" y="495"/>
      <point x="219" y="477"/>
      <point x="176" y="477" type="curve" smooth="yes"/>
      <point x="133" y="477"/>
      <point x="111" y="495"/>
      <point x="111" y="530" type="curve"/>
      <point x="36" y="530" type="line"/>
    </contour>
  </outline>
</glyph>
<glyph name="Atilde" format="1">
  <advance width="686"/>
  <unicode hex="00C3"/>
  <outline>
    <contour>
      <point x="522" y="0" type="line"/>
      <point x="684" y="0" type="line"/>
      <point x="435" y="686" type="line"/>
      <point x="251" y="686" type="line"/>
      <point x="2" y="0" type="line"/>
      <point x="151" y="0" type="line"/>
      <point x="199" y="135" type="line"/>
      <point x="472" y="135" type="line"/>
    </contour>
    <contour>
      <point x="339" y="521" type="line"/>
      <point x="370" y="432"/>
      <point x="401" y="342"/>
      <point x="431" y="252" type="curve"/>
      <point x="241" y="252" type="line"/>
      <point x="272" y="342"/>
      <point x="303" y="432"/>
      <point x="334" y="521" type="curve"/>
    </contour>
    <contour>
      <point x="481" y="873" type="line"/>
      <point x="474" y="850"/>
      <point x="456" y="835"/>
      <point x="428" y="835" type="curve" smooth="yes"/>
      <point x="374" y="835"/>
      <point x="322" y="873"/>
      <point x="258" y="873" type="curve" smooth="yes"/>
      <point x="180" y="873"/>
      <point x="131" y="808"/>
      <point x="131" y="749" type="curve"/>
      <point x="197" y="749" type="line"/>
      <point x="204" y="772"/>
      <point x="221" y="786"/>
      <point x="249" y="786" type="curve" smooth="yes"/>
      <point x="303" y="786"/>
      <point x="356" y="749"/>
      <point x="420" y="749" type="curve" smooth="yes"/>
      <point x="498" y="749"/>
      <point x="546" y="813"/>
      <point x="546" y="873" type="curve"/>
    </contour>
  </outline>
</glyph>
<glyph name="Aring" format="1">
  <advance width="686"/>
  <unicode hex="00C5"/>
  <outline>
    <contour>
      <point x="522" y="0" type="line"/>
      <point x="684" y="0" type="line"/>
      <point x="435" y="686" type="line"/>
      <point x="251" y="686" type="line"/>
      <point x="2" y="0" type="line"/>
      <point x="151" y="0" type="line"/>
      <point x="199" y="135" type="line"/>
      <point x="472" y="135" type="line"/>
    </contour>
    <contour>
      <point x="339" y="521" type="line"/>
      <point x="370" y="432"/>
      <point x="401" y="342"/>
      <point x="431" y="252" type="curve"/>
      <point x="241" y="252" type="line"/>
      <point x="272" y="342"/>
      <point x="303" y="432"/>
      <point x="334" y="521" type="curve"/>
    </contour>
    <contour>
      <point x="246" y="774"/>
      <point x="291" y="729"/>
      <point x="347" y="729" type="curve" smooth="yes"/>
      <point x="403" y="729"/>
      <point x="448" y="774"/>
      <point x="448" y="830" type="curve" smooth="yes"/>
      <point x="448" y="886"/>
      <point x="403" y="931"/>
      <point x="347" y="931" type="curve" smooth="yes"/>
      <point x="291" y="931"/>
      <point x="246" y="886"/>
      <point x="246" y="830" type="curve" smooth="yes"/>
    </contour>
    <contour>
      <point x="303" y="854"/>
      <point x="323" y="874"/>
      <point x="347" y="874" type="curve" smooth="yes"/>
      <point x="371" y="874"/>
      <point x="391" y="854"/>
      <point x="391" y="830" type="curve" smooth="yes"/>
      <point x="391" y="806"/>
      <point x="371" y="786"/>
      <point x="347" y="786" type="curve" smooth="yes"/>
      <point x="323" y="786"/>
      <point x="303" y="806"/>
      <point x="303" y="830" type="curve" smooth="yes"/>
    </contour>
  </outline>
</glyph>
<glyph name="AE" format="1">
  <advance width="1004"/>
  <unicode hex="00C6"/>
  <outline>
    <contour>
      <point x="518" y="0" type="line"/>
      <point x="964" y="0" type="line"/>
      <point x="947" y="126" type="line"/>
      <point x="653" y="126" type="line"/>
      <point x="641" y="181"/>
      <point x="628" y="236"/>
      <point x="615" y="290" type="curve"/>
      <point x="922" y="290" type="line"/>
      <point x="922" y="411" type="line"/>
      <point x="589" y="411" type="line"/>
      <point x="555" y="562" type="line"/>
      <point x="944" y="562" type="line"/>
      <point x="960" y="686" type="line"/>
      <point x="344" y="686" type="line"/>
      <point x="0" y="0" type="line"/>
      <point x="147" y="0" type="line"/>
      <point x="169" y="45"/>
      <point x="192" y="90"/>
      <point x="215" y="135" type="curve"/>
      <point x="488" y="135" type="line"/>
    </contour>
    <contour>
      <point x="409" y="521" type="line"/>
      <point x="428" y="432"/>
      <point x="445" y="342"/>
      <point x="464" y="252" type="curve"/>
      <point x="273" y="252" type="line"/>
      <point x="317" y="342"/>
      <point x="360" y="432"/>
      <point x="404" y="521" type="curve"/>
    </contour>
    <contour>
      <point x="502" y="686" type="move" name="top"/>
    </contour>
  </outline>
</glyph>
<glyph name="Egrave" format="1">
  <advance width="598"/>
  <unicode hex="00C8"/>
  <outline>
    <contour>
      <point x="558" y="0" type="line"/>
      <point x="541" y="123" type="line"/>
      <point x="224" y="123" type="line"/>
      <point x="224" y="290" type="line"/>
      <point x="517" y="290" type="line"/>
      <point x="517" y="413" type="line"/>
      <point x="224" y="413" type="line"/>
      <point x="224" y="563" type="line"/>
      <point x="538" y="563" type="line"/>
      <point x="555" y="686" type="line"/>
      <point x="72" y="686" type="line"/>
      <point x="72" y="0" type="line"/>
    </contour>
    <contour>
      <point x="379" y="750" type="line"/>
      <point x="286" y="895" type="line"/>
      <point x="158" y="895" type="line"/>
      <point x="157" y="892" type="line"/>
      <point x="277" y="750" type="line"/>
    </contour>
  </outline>
</glyph>
<glyph name="Iacute" format="1">
  <advance width="461"/>
  <unicode hex="00CD"/>
  <outline>
    <contour>
      <point x="72" y="563" type="line"/>
      <point x="153" y="563" type="line"/>
      <point x="153" y="123" type="line"/>
      <point x="72" y="123" type="line"/>
      <point x="72" y="0" type="line"/>
      <point x="388" y="0" type="line"/>
      <point x="388" y="123" type="line"/>
      <point x="308" y="123" type="line"/>
      <point x="308" y="563" type="line"/>
      <point x="388" y="563" type="line"/>
      <point x="388" y="686" type="line"/>
      <point x="72" y="686" type="line"/>
    </contour>
    <contour>
      <point x="270" y="750" type="line"/>
      <point x="391" y="892" type="line"/>
      <point x="390" y="895" type="line"/>
      <point x="261" y="895" type="line"/>
      <point x="169" y="750" type="line"/>
    </contour>
  </outline>
</glyph>
<glyph name="agrave" format="1">
  <advance width="598"/>
  <unicode hex="00E0"/>
  <outline>
    <contour>
      <point x="379" y="202" type="line" smooth="yes"/>
      <point x="379" y="134"/>
      <point x="316" y="90"/>
      <point x="266" y="90" type="curve" smooth="yes"/>
      <point x="217" y="90"/>
      <point x="191" y="105"/>
      <point x="191" y="150" type="curve" smooth="yes"/>
      <point x="191" y="208"/>
      <point x="256" y="229"/>
      <point x="379" y="229" type="curve"/>
    </contour>
    <contour>
      <point x="379" y="311" type="line"/>
      <point x="174" y="311"/>
      <point x="40" y="286"/>
      <point x="40" y="139" type="curve" smooth="yes"/>
      <point x="40" y="11"/>
      <point x="132" y="-10"/>
      <point x="214" y="-10" type="curve" smooth="yes"/>
      <point x="296" y="-10"/>
      <point x="351" y="33"/>
      <point x="386" y="76" type="curve"/>
      <point x="392" y="24"/>
      <point x="428" y="-10"/>
      <point x="504" y="-10" type="curve" smooth="yes"/>
      <point x="554" y="-10"/>
      <point x="585" y="7"/>
      <point x="592" y="11" type="curve"/>
      <point x="592" y="101" type="line"/>
      <point x="586" y="98"/>
      <point x="566" y="90"/>
      <point x="551" y="90" type="curve" smooth="yes"/>
      <point x="537" y="90"/>
      <point x="522" y="100"/>
      <point x="522" y="126" type="curve" smooth="yes"/>
      <point x="522" y="362" type="line" smooth="yes"/>
      <point x="522" y="457"/>
      <point x="450" y="521"/>
      <point x="302" y="521" type="curve" smooth="yes"/>
      <point x="281" y="521" type="line" smooth="yes"/>
      <point x="147" y="521"/>
      <point x="56" y="458"/>
      <point x="56" y="372" type="curve" smooth="yes"/>
      <point x="56" y="365"/>
      <point x="57" y="360"/>
      <point x="58" y="354" type="curve"/>
      <point x="199" y="354" type="line"/>
      <point x="199" y="362" type="line" smooth="yes"/>
      <point x="199" y="385"/>
      <point x="229" y="421"/>
      <point x="288" y="421" type="curve" smooth="yes"/>
      <point x="356" y="421"/>
      <point x="379" y="387"/>
      <point x="379" y="345" type="curve" smooth="yes"/>
    </contour>
    <contour>
      <point x="344" y="575" type="line"/>
      <point x="251" y="720" type="line"/>
      <point x="123" y="720" type="line"/>
      <point x="122" y="717" type="line"/>
      <point x="242" y="575" type="line"/>
    </contour>
  </outline>
</glyph>
<glyph name="ae" format="1">
  <advance width="918"/>
  <unicode hex="00E6"/>
  <outline>
    <contour>
      <point x="873" y="231" type="line"/>
      <point x="873" y="298" type="line" smooth="yes"/>
      <point x="873" y="431"/>
      <point x="784" y="521"/>
      <point x="642" y="521" type="curve" smooth="yes"/>
      <point x="626" y="521" type="line" smooth="yes"/>
      <point x="565" y="521"/>
      <point x="510" y="504"/>
      <point x="469" y="472" type="curve"/>
      <point x="434" y="503"/>
      <point x="379" y="521"/>
      <point x="302" y="521" type="curve" smooth="yes"/>
      <point x="281" y="521" type="line" smooth="yes"/>
      <point x="147" y="521"/>
      <point x="56" y="458"/>
      <point x="56" y="372" type="curve" smooth="yes"/>
      <point x="56" y="365"/>
      <point x="57" y="360"/>
      <point x="58" y="354" type="curve"/>
      <point x="199" y="354" type="line"/>
      <point x="199" y="362" type="line" smooth="yes"/>
      <point x="199" y="383"/>
      <point x="219" y="425"/>
      <point x="288" y="425" type="curve" smooth="yes"/>
      <point x="360" y="425"/>
      <point x="379" y="387"/>
      <point x="379" y="349" type="curve" smooth="yes"/>
      <point x="379" y="311" type="line"/>
      <point x="174" y="311"/>
      <point x="40" y="286"/>
      <point x="40" y="139" type="curve" smooth="yes"/>
      <point x="40" y="11"/>
      <point x="139" y="-10"/>
      <point x="221" y="-10" type="curve" smooth="yes"/>
      <point x="304" y="-10"/>
      <point x="385" y="23"/>
      <point x="430" y="79" type="curve"/>
      <point x="475" y="21"/>
      <point x="546" y="-10"/>
      <point x="631" y="-10" type="curve" smooth="yes"/>
      <point x="641" y="-10" type="line" smooth="yes"/>
      <point x="782" y="-10"/>
      <point x="872" y="73"/>
      <point x="872" y="191" type="curve"/>
      <point x="736" y="191" type="line"/>
      <point x="736" y="150"/>
      <point x="717" y="88"/>
      <point x="637" y="88" type="curve" smooth="yes"/>
      <point x="555" y="88"/>
      <point x="528" y="146"/>
      <point x="528" y="231" type="curve"/>
    </contour>
    <contour>
      <point x="379" y="197" type="line" smooth="yes"/>
      <point x="379" y="129"/>
      <point x="327" y="88"/>
      <point x="273" y="88" type="curve" smooth="yes"/>
      <point x="224" y="88"/>
      <point x="191" y="102"/>
      <point x="191" y="150" type="curve" smooth="yes"/>
      <point x="191" y="208"/>
      <point x="256" y="229"/>
      <point x="379" y="229" type="curve"/>
    </contour>
    <contour>
      <point x="685" y="423"/>
      <point x="729" y="385"/>
      <point x="729" y="324" type="curve" smooth="yes"/>
      <point x="729" y="311" type="line"/>
      <point x="529" y="311" type="line"/>
      <point x="534" y="378"/>
      <point x="569" y="423"/>
      <point x="632" y="423" type="curve" smooth="yes"/>
    </contour>
    <contour>
      <point x="459" y="511" type="move" name="top"/>
    </contour>
  </outline>
</glyph>
<glyph name="iacute" format="1">
  <advance width="278"/>
  <unicode hex="00ED"/>
  <outline>
    <contour>
      <point x="212" y="0" type="line"/>
      <point x="212" y="511" type="line"/>
      <point x="66" y="511" type="line"/>
      <point x="66" y="0" type="line"/>
    </contour>
    <contour>
      <point x="171" y="575" type="line"/>
      <point x="292" y="717" type="line"/>
      <point x="291" y="720" type="line"/>
      <point x="162" y="720" type="line"/>
      <point x="70" y="575" type="line"/>
    </contour>
  </outline>
</glyph>
<glyph name="idieresis" format="1">
  <advance width="278"/>
  <unicode hex="00EF"/>
  <outline>
    <contour>
      <point x="212" y="0" type="line"/>
      <point x="212" y="511" type="line"/>
      <point x="66" y="511" type="line"/>
      <point x="66" y="0" type="line"/>
    </contour>
    <contour>
      <point x="-23" y="598" type="line"/>
      <point x="98" y="598" type="line"/>
      <point x="98" y="720" type="line"/>
      <point x="-23" y="720" type="line"/>
    </contour>
    <contour>
      <point x="181" y="598" type="line"/>
      <point x="302" y="598" type="line"/>
      <point x="302" y="720" type="line"/>
      <point x="181" y="720" type="line"/>
    </contour>
  </outline>
</glyph>
<glyph name="udieresis" format="1">
  <advance width="611"/>
  <unicode hex="00FC"/>
  <outline>
    <contour>
      <point x="531" y="511" type="line"/>
      <point x="385" y="511" type="line"/>
      <point x="385" y="197" type="line" smooth="yes"/>
      <point x="385" y="140"/>
      <point x="341" y="96"/>
      <point x="290" y="96" type="curve" smooth="yes"/>
      <point x="243" y="96"/>
      <point x="210" y="134"/>
      <point x="210" y="186" type="curve" smooth="yes"/>
      <point x="210" y="511" type="line"/>
      <point x="64" y="511" type="line"/>
      <point x="64" y="154" type="line" smooth="yes"/>
      <point x="64" y="43"/>
      <point x="145" y="-10"/>
      <point x="243" y="-10" type="curve" smooth="yes"/>
      <point x="315" y="-10"/>
      <point x="364" y="25"/>
      <point x="397" y="63" type="curve"/>
      <point x="407" y="18"/>
      <point x="443" y="-10"/>
      <point x="513" y="-10" type="curve" smooth="yes"/>
      <point x="563" y="-10"/>
      <point x="594" y="7"/>
      <point x="601" y="11" type="curve"/>
      <point x="601" y="101" type="line"/>
      <point x="595" y="98"/>
      <point x="575" y="90"/>
      <point x="560" y="90" type="curve" smooth="yes"/>
      <point x="547" y="90"/>
      <point x="531" y="98"/>
      <point x="531" y="120" type="curve" smooth="yes"/>
    </contour>
    <contour>
      <point x="135" y="598" type="line"/>
      <point x="256" y="598" type="line"/>
      <point x="256" y="720" type="line"/>
      <point x="135" y="720" type="line"/>
    </contour>
    <contour>
      <point x="339" y="598" type="line"/>
      <point x="460" y="598" type="line"/>
      <point x="460" y="720" type="line"/>
      <point x="339" y="720" type="line"/>
    </contour>
  </outline>
</glyph>
<glyph name="dotlessi" format="1">
  <advance width="278"/>
  <unicode hex="0131"/>
  <outline>
    <contour>
      <point x="212" y="0" type="line"/>
      <point x="212" y="511" type="line"/>
      <point x="66" y="511" type="line"/>
      <point x="66" y="0" type="line"/>
    </contour>
    <contour>
      <point x="200" y="10" type="move" name="ogonek"/>
    </contour>
    <contour>
      <point x="139" y="511" type="move" name="top"/>
    </contour>
  </outline>
</glyph>
<glyph name="Zcaron" format="1">
  <advance width="631"/>
  <unicode hex="017D"/>
  <outline>
    <contour>
      <point x="589" y="0" type="line"/>
      <point x="589" y="123" type="line"/>
      <point x="266" y="123" type="line"/>
      <point x="581" y="636" type="line"/>
      <point x="581" y="686" type="line"/>
      <point x="66" y="686" type="line"/>
      <point x="66" y="563" type="line"/>
      <point x="358" y="563" type="line"/>
      <point x="42" y="49" type="line"/>
      <point x="42" y="0" type="line"/>
    </contour>
    <contour>
      <point x="271" y="750" type="line"/>
      <point x="374" y="750" type="line"/>
      <point x="419" y="798"/>
      <point x="465" y="847"/>
      <point x="511" y="895" type="curve"/>
      <point x="407" y="895" type="line"/>
      <point x="323" y="812" type="line"/>
      <point x="238" y="895" type="line"/>
      <point x="133" y="895" type="line"/>
    </contour>
  </outline>
</glyph>
<glyph name="uni0326" format="1">
  <advance width="277"/>
  <unicode hex="0326"/>
  <outline>
    <contour>
      <point x="186" y="-250" type="line"/>
      <point x="211" y="-143" type="line"/>
      <point x="211" y="-30" type="line"/>
      <point x="65" y="-30" type="line"/>
      <point x="65" y="-167" type="line"/>
      <point x="128" y="-167" type="line"/>
      <point x="112" y="-250" type="line"/>
    </contour>
    <contour>
      <point x="132" y="0" type="move" name="_bottom"/>
    </contour>
  </outline>
</glyph>
<glyph name="quotedblleft" format="1">
  <advance width="472"/>
  <unicode hex="201C"/>
  <outline>
    <contour>
      <point x="302" y="686" type="line"/>
      <point x="260" y="518" type="line"/>
      <point x="260" y="395" type="line"/>
      <point x="406" y="395" type="line"/>
      <point x="406" y="542" type="line"/>
      <point x="343" y="542" type="line"/>
      <point x="354" y="590"/>
      <point x="365" y="638"/>
      <point x="375" y="686" type="curve"/>
    </contour>
    <contour>
      <point x="107" y="686" type="line"/>
      <point x="65" y="518" type="line"/>
      <point x="65" y="395" type="line"/>
      <point x="211" y="395" type="line"/>
      <point x="211" y="542" type="line"/>
      <point x="148" y="542" type="line"/>
      <point x="159" y="590"/>
      <point x="170" y="638"/>
      <point x="180" y="686" type="curve"/>
    </contour>
  </outline>
</glyph>
<glyph name="quotedblright" format="1">
  <advance width="472"/>
  <unicode hex="201D"/>
  <outline>
    <contour>
      <point x="169" y="395" type="line"/>
      <point x="211" y="563" type="line"/>
      <point x="211" y="686" type="line"/>
      <point x="65" y="686" type="line"/>
      <point x="65" y="539" type="line"/>
      <point x="128" y="539" type="line"/>
      <point x="117" y="491"/>
      <point x="106" y="443"/>
      <point x="96" y="395" type="curve"/>
    </contour>
    <contour>
      <point x="364" y="395" type="line"/>
      <point x="406" y="563" type="line"/>
      <point x="406" y="686" type="line"/>
      <point x="260" y="686" type="line"/>
      <point x="260" y="539" type="line"/>
      <point x="323" y="539" type="line"/>
      <point x="312" y="491"/>
      <point x="301" y="443"/>
      <point x="291" y="395" type="curve"/>
    </contour>
  </outline>
</glyph>
<glyph name="daggerdbl" format="1">
  <advance width="572"/>
  <unicode hex="2021"/>
  <outline>
    <contour>
      <point x="325" y="100" type="line"/>
      <point x="331" y="151"/>
      <point x="337" y="204"/>
      <point x="343" y="256" type="curve"/>
      <point x="325" y="411" type="line"/>
      <point x="399" y="404"/>
      <point x="465" y="398"/>
      <point x="531" y="392" type="curve"/>
      <point x="531" y="510" type="line"/>
      <point x="463" y="503"/>
      <point x="393" y="497"/>
      <point x="325" y="491" type="curve"/>
      <point x="343" y="686" type="line"/>
      <point x="228" y="686" type="line"/>
      <point x="247" y="491" type="line"/>
      <point x="178" y="497"/>
      <point x="109" y="503"/>
      <point x="40" y="510" type="curve"/>
      <point x="40" y="392" type="line"/>
      <point x="109" y="398"/>
      <point x="178" y="404"/>
      <point x="247" y="411" type="curve"/>
      <point x="240" y="359"/>
      <point x="234" y="308"/>
      <point x="228" y="256" type="curve"/>
      <point x="235" y="204"/>
      <point x="240" y="151"/>
      <point x="247" y="100" type="curve"/>
      <point x="40" y="118" type="line"/>
      <point x="40" y="1" type="line"/>
      <point x="109" y="7"/>
      <point x="178" y="13"/>
      <point x="247" y="20" type="curve"/>
      <point x="240" y="-45"/>
      <point x="234" y="-109"/>
      <point x="228" y="-175" type="curve"/>
      <point x="343" y="-175" type="line"/>
      <point x="325" y="20" type="line"/>
      <point x="393" y="13"/>
      <point x="463" y="7"/>
      <point x="531" y="1" type="curve"/>
      <point x="531" y="118" type="line"/>
    </contour>
  </outline>
</glyph>
<glyph name="fraction" format="1">
  <advance width="194"/>
  <unicode hex="2044"/>
  <outline>
    <contour>
      <point x="340" y="686" type="line"/>
      <point x="269" y="686" type="line"/>
      <point x="-151" y="0" type="line"/>
      <point x="-77" y="0" type="line"/>
    </contour>
  </outline>
</glyph>
<glyph name="partialdiff" format="1">
  <advance width="600"/>
  <unicode hex="2202"/>
  <outline>
    <contour>
      <point x="182" y="578" type="line"/>
      <point x="302" y="578" type="line" smooth="yes"/>
      <point x="360" y="578"/>
      <point x="408" y="523"/>
      <point x="408" y="474" type="curve" smooth="yes"/>
      <point x="408" y="371" type="line"/>
      <point x="372" y="413"/>
      <point x="314" y="434"/>
      <point x="265" y="434" type="curve" smooth="yes"/>
      <point x="142" y="434"/>
      <point x="45" y="357"/>
      <point x="45" y="224" type="curve" smooth="yes"/>
      <point x="45" y="83"/>
      <point x="152" y="-10"/>
      <point x="290" y="-10" type="curve" smooth="yes"/>
      <point x="308" y="-10" type="line" smooth="yes"/>
      <point x="446" y="-10"/>
      <point x="554" y="89"/>
      <point x="554" y="230" type="curve" smooth="yes"/>
      <point x="554" y="455" type="line" smooth="yes"/>
      <point x="554" y="595"/>
      <point x="448" y="696"/>
      <point x="311" y="696" type="curve" smooth="yes"/>
      <point x="182" y="696" type="line"/>
    </contour>
    <contour>
      <point x="408" y="205" type="line" smooth="yes"/>
      <point x="408" y="146"/>
      <point x="361" y="101"/>
      <point x="300" y="101" type="curve" smooth="yes"/>
      <point x="236" y="101"/>
      <point x="189" y="146"/>
      <point x="189" y="205" type="curve" smooth="yes"/>
      <point x="189" y="235" type="line" smooth="yes"/>
      <point x="189" y="294"/>
      <point x="236" y="339"/>
      <point x="296" y="339" type="curve" smooth="yes"/>
      <point x="361" y="339"/>
      <point x="408" y="294"/>
      <point x="408" y="235" type="curve" smooth="yes"/>
    </contour>
  </outline>
</glyph>
<glyph name="uniFB01" format="1">
  <advance width="641"/>
  <unicode hex="FB01"/>
  <outline>
    <contour>
      <point x="350" y="707" type="line"/>
      <point x="322" y="720"/>
      <point x="270" y="728"/>
      <point x="239" y="728" type="curve" smooth="yes"/>
      <point x="142" y="728"/>
      <point x="85" y="684"/>
      <point x="85" y="578" type="curve" smooth="yes"/>
      <point x="85" y="511" type="line"/>
      <point x="25" y="511" type="line"/>
      <point x="25" y="411" type="line"/>
      <point x="85" y="411" type="line"/>
      <point x="85" y="0" type="line"/>
      <point x="231" y="0" type="line"/>
      <point x="231" y="411" type="line"/>
      <point x="350" y="411" type="line"/>
      <point x="350" y="511" type="line"/>
      <point x="231" y="511" type="line"/>
      <point x="231" y="569" type="line" smooth="yes"/>
      <point x="231" y="623"/>
      <point x="264" y="629"/>
      <point x="288" y="629" type="curve" smooth="yes"/>
      <point x="303" y="629"/>
      <point x="334" y="623"/>
      <point x="350" y="618" type="curve"/>
    </contour>
    <contour>
      <point x="575" y="0" type="line"/>
      <point x="575" y="511" type="line"/>
      <point x="429" y="511" type="line"/>
      <point x="429" y="0" type="line"/>
    </contour>
    <contour>
      <point x="428" y="605" type="line"/>
      <point x="576" y="605" type="line"/>
      <point x="576" y="720" type="line"/>
      <point x="428" y="720" type="line"/>
    </contour>
  </outline>
</glyph>
<glyph name=".notdef" format="1">
  <advance width="500"/>
  <outline>
    <contour>
      <point x="0" y="0" type="line"/>
      <point x="500" y="0" type="line"/>
      <point x="500" y="700" type="line"/>
      <point x="0" y="700" type="line"/>
    </contour>
    <contour>
      <point x="250" y="395" type="line"/>
      <point x="80" y="650" type="line"/>
      <point x="420" y="650" type="line"/>
    </contour>
    <contour>
      <point x="280" y="350" type="line"/>
      <point x="450" y="605" type="line"/>
      <point x="450" y="95" type="line"/>
    </contour>
    <contour>
      <point x="80" y="50" type="line"/>
      <point x="250" y="305" type="line"/>
      <point x="420" y="50" type="line"/>
    </contour>
    <contour>
      <point x="50" y="605" type="line"/>
      <point x="220" y="350" type="line"/>
      <point x="50" y="95" type="line"/>
    </contour>
  </outline>
</glyph>
